<svg xmlns="http://www.w3.org/2000/svg" width="121" height="99.507" viewBox="0 0 121 99.507"><g transform="translate(-127 -227.493)"><g transform="translate(344.5 581) rotate(180)"><line x2="77" transform="translate(97.5 290.5)" fill="none" stroke="#000" stroke-linecap="round" stroke-width="2"/><line x2="26" transform="translate(190.5 290.5)" fill="none" stroke="#000" stroke-linecap="round" stroke-width="2"/></g><g transform="translate(108 -120)"><text transform="translate(45 420)" font-size="23" font-family="Raleway-Bold, Raleway" font-weight="700"><tspan x="0" y="22">ZPlan</tspan></text></g><path d="M1970,237h11v8" transform="translate(-1756 65)" fill="none" stroke="#000" stroke-linecap="round" stroke-width="2"/><path d="M31.993,5A26.848,26.848,0,0,0,17.046,9.523L12.769,5.246a.846.846,0,0,0-1.44.6v5.482H5.847a.846.846,0,0,0-.6,1.44l4.277,4.277A26.992,26.992,0,1,0,31.993,5ZM18.078,12.942v3.941L13.015,11.82V7.879Zm7.99,14.318a7.6,7.6,0,1,0,1.2-1.2L22.15,20.943a14.827,14.827,0,1,1-1.2,1.2Zm4.307,4.307a1.715,1.715,0,1,0,1.2-1.2l-3.1-3.1a5.926,5.926,0,1,1-1.2,1.2ZM11.821,13.014l5.062,5.062H12.943L7.881,13.014ZM31.993,57.3a25.282,25.282,0,0,1-21.246-39.03L12,19.516a.846.846,0,0,0,.6.246h6l1.2,1.2a16.495,16.495,0,1,0,1.2-1.2l-1.2-1.2v-6a.846.846,0,0,0-.246-.6L18.3,10.716A25.3,25.3,0,1,1,31.993,57.3Z" transform="translate(155.496 223.009)" stroke="#000" stroke-width="1"/></g></svg>