<svg xmlns="http://www.w3.org/2000/svg" width="121" height="90" viewBox="0 0 121 90"><g transform="translate(-127 -237)"><path d="M45.2,38.59h0a4.8,4.8,0,0,1-4.8,4.8H5.8A4.8,4.8,0,0,1,1,38.59V10.726A3.844,3.844,0,0,1,4.843,6.883H24.224l7.782-2.819a.951.951,0,0,1,1.218.566l.82,2.253h3.468a3.844,3.844,0,0,1,3.843,3.843v1.922h0A3.844,3.844,0,0,1,45.2,16.491ZM4.843,8.8h0a1.922,1.922,0,1,0,0,3.843H8.335c.012,0,.02-.015.033-.02L18.92,8.8Zm27.939.174-1.02-2.809h0l-1.971.714h0L24.5,8.8h-.01L13.879,12.648H34.116Zm6.651,1.748A1.922,1.922,0,0,0,37.512,8.8h-2.77l1.4,3.843h3.295Zm1.922,3.843H4.843a3.8,3.8,0,0,1-1.922-.533V38.59A2.883,2.883,0,0,0,5.8,41.473h34.59a2.882,2.882,0,0,0,2.883-2.882V31.864H39.433a3.843,3.843,0,0,1,0-7.687h3.843V16.491A1.922,1.922,0,0,0,41.355,14.569Zm1.922,15.373V26.1H39.433a1.922,1.922,0,0,0,0,3.843ZM40.7,28.324l.653-1.264v1.922H39.433Z" transform="translate(164 232.994)" fill-rule="evenodd"/><g transform="translate(30.5)"><line x2="77" transform="translate(97.5 290.5)" fill="none" stroke="#000" stroke-linecap="round" stroke-width="2"/><line x2="26" transform="translate(190.5 290.5)" fill="none" stroke="#000" stroke-linecap="round" stroke-width="2"/></g><g transform="translate(108 -120)"><text transform="translate(45 420)" font-size="23" font-family="Raleway-Bold, Raleway" font-weight="700"><tspan x="0" y="22">ZSave</tspan></text></g><path d="M1970,237h11v8" transform="translate(-1756 65)" fill="none" stroke="#000" stroke-linecap="round" stroke-width="2"/></g></svg>