<svg xmlns="http://www.w3.org/2000/svg" width="75" height="35" viewBox="0 0 548 274">
  <g id="Group_1" data-name="Group 1" transform="translate(-361 -499)">
    <path id="Exclusion_2" data-name="Exclusion 2" d="M393.882,251.162H302.547A28.571,28.571,0,0,1,274,222.628V110.066H239.86V144.7l-.02-.02L194.023,98.722,239.89,52.731V87.224H274v22.841h22.831v106.85h35.223a17.128,17.128,0,1,0,32.3,0h35.223V34.247H296.835V87.224H274V28.544A28.576,28.576,0,0,1,302.547,0h91.334a28.571,28.571,0,0,1,28.534,28.544V222.628A28.566,28.566,0,0,1,393.882,251.162Zm-274,0H28.544A28.571,28.571,0,0,1,0,222.628V28.544A28.576,28.576,0,0,1,28.544,0h91.334a28.571,28.571,0,0,1,28.534,28.544V156.2H125.581V34.247H22.831V216.916H58.063a17.123,17.123,0,1,0,32.3,0h-32.3a17.129,17.129,0,0,1,32.291-.015l.005.015h35.222v-37.75H90.554V156.2h35.027v22.965h22.831v43.463A28.566,28.566,0,0,1,119.878,251.162Zm244.477-34.247h-32.3a17.13,17.13,0,0,1,32.293-.015Zm-193.234-3.258V179.165H148.412V156.2H171.12V121.707L216.987,167.7l-45.847,45.94Zm149.3-103.581h-.011l-23.58-.01V87.224h23.591v22.852Z" transform="translate(418.083 499)" fill="#dd4f05"/>
    <path id="Path_2" data-name="Path 2" d="M0,0H274V274H0Z" transform="translate(361 499)" fill="none"/>
    <rect id="Rectangle_1" data-name="Rectangle 1" width="102.75" height="22.833" transform="translate(440.917 715.917)" fill="#dd4f05"/>
    <path id="Path_2-2" data-name="Path 2" d="M0,0H274V274H0Z" transform="translate(635 499)" fill="none"/>
    <rect id="Rectangle_1-2" data-name="Rectangle 1" width="102.75" height="22.833" transform="translate(714.917 715.917)" fill="#dd4f05"/>
  </g>
</svg>
